G04 Layer: TopSolderMaskLayer*
G04 EasyEDA v6.3.53, 2020-07-21T18:42:38+02:00*
G04 Gerber Generator version 0.2*
G04 Scale: 100 percent, Rotated: No, Reflected: No *
G04 Dimensions in millimeters *
G04 leading zeros omitted , absolute positions ,3 integer and 3 decimal *
%FSLAX33Y33*%
%MOMM*%
G90*
G71D02*

%ADD19C,2.003196*%
%ADD21C,1.727200*%

%LPD*%
G54D19*
G01X26191Y17428D02*
G01X26191Y17428D01*
G01X23651Y17428D02*
G01X23651Y17428D01*
G36*
G01X1315Y17571D02*
G01X1315Y19572D01*
G01X3316Y19572D01*
G01X3316Y17571D01*
G01X1315Y17571D01*
G37*
G01X4855Y18571D03*
G01X7395Y18571D03*
G36*
G01X7665Y8046D02*
G01X7665Y10047D01*
G01X9666Y10047D01*
G01X9666Y8046D01*
G01X7665Y8046D01*
G37*
G01X6125Y9046D03*
G01X3585Y9046D03*
G54D21*
G01X10189Y19714D03*
G01X20349Y19714D03*
G01X22381Y14507D03*
G01X22381Y4347D03*
G01X9681Y2696D03*
G01X19841Y2696D03*
G01X9681Y6506D03*
G01X19841Y6506D03*
G01X19333Y22635D03*
G01X9173Y22635D03*
G01X18800Y13999D03*
G01X16260Y13999D03*
G36*
G01X8386Y13136D02*
G01X8386Y14863D01*
G01X10113Y14863D01*
G01X10113Y13136D01*
G01X8386Y13136D01*
G37*
G01X11750Y13998D03*
G36*
G01X20111Y16428D02*
G01X20111Y18429D01*
G01X22112Y18429D01*
G01X22112Y16428D01*
G01X20111Y16428D01*
G37*
G36*
G01X17129Y25000D02*
G01X17129Y26618D01*
G01X18747Y26618D01*
G01X18747Y25000D01*
G01X17129Y25000D01*
G37*
G36*
G01X12049Y25000D02*
G01X12049Y26618D01*
G01X13667Y26618D01*
G01X13667Y25000D01*
G01X12049Y25000D01*
G37*
G36*
G01X14589Y25000D02*
G01X14589Y26618D01*
G01X16207Y26618D01*
G01X16207Y25000D01*
G01X14589Y25000D01*
G37*
G36*
G01X9509Y25000D02*
G01X9509Y26618D01*
G01X11127Y26618D01*
G01X11127Y25000D01*
G01X9509Y25000D01*
G37*
M00*
M02*
