;Layer: Drill PTH
;EasyEDA v6.3.53, 2020-07-21T18:42:38+02:00
;10
;Gerber Generator version 0.2
M48
METRIC,LZ,000.000
;Holesize 1 = 0.915 METRIC
T01C0.915
;Holesize 2 = 1.000 METRIC
T02C1.000
;Holesize 3 = 1.016 METRIC
T03C1.016
%
G05
G90
T01
X+010189Y+019714
X+020349Y+019714
X+022381Y+014507
X+022381Y+004347
X+009681Y+002696
X+019841Y+002696
X+009681Y+006506
X+019841Y+006506
X+019333Y+022635
X+009173Y+022635
X+018799Y+013999
X+016259Y+013999
X+009249Y+014001
X+011750Y+013998
T02
X+002315Y+018571
X+004855Y+018571
X+007395Y+018571
X+008665Y+009046
X+006125Y+009046
X+003585Y+009046
X+026191Y+017428
X+023651Y+017428
X+021111Y+017428
T03
X+017936Y+025810
X+012856Y+025810
X+015396Y+025810
X+010316Y+025810
M30
