G04 Layer: BottomLayer*
G04 EasyEDA v6.3.53, 2020-07-21T18:42:38+02:00*
G04 Gerber Generator version 0.2*
G04 Scale: 100 percent, Rotated: No, Reflected: No *
G04 Dimensions in millimeters *
G04 leading zeros omitted , absolute positions ,3 integer and 3 decimal *
%FSLAX33Y33*%
%MOMM*%
G90*
G71D02*

%ADD10C,0.254000*%
%ADD11C,0.259994*%
%ADD12R,1.799996X1.799996*%
%ADD13C,1.799996*%
%ADD14C,1.524000*%
%ADD16R,1.414780X1.414780*%

%LPD*%
G54D11*
G01X10316Y25810D02*
G01X10316Y24810D01*
G01X10316Y24810D02*
G01X9173Y23667D01*
G01X9173Y22635D01*
G01X9681Y6506D02*
G01X8665Y7522D01*
G01X8665Y9046D01*
G01X9681Y2696D02*
G01X6125Y6252D01*
G01X6125Y9046D01*
G01X12856Y25810D02*
G01X12856Y22381D01*
G01X10189Y19714D01*
G01X21111Y17428D02*
G01X21111Y16237D01*
G01X21111Y16237D02*
G01X21111Y15777D01*
G01X22381Y14507D01*
G01X17936Y25810D02*
G01X17936Y24810D01*
G01X17936Y24810D02*
G01X19333Y23413D01*
G01X19333Y22635D01*
G54D10*
G01X6125Y9046D02*
G01X9249Y12170D01*
G01X9249Y14001D01*
G01X3585Y9046D02*
G01X3585Y17301D01*
G01X4855Y18571D01*
G01X19841Y6506D02*
G01X26191Y12856D01*
G01X26191Y17428D01*
G01X11750Y13998D02*
G01X11750Y18154D01*
G01X10189Y19714D01*
G01X2315Y18571D02*
G01X6379Y22635D01*
G01X9173Y22635D01*
G01X26191Y17428D02*
G01X20984Y22635D01*
G01X19333Y22635D01*
G01X23651Y17428D02*
G01X21365Y19714D01*
G01X20349Y19714D01*
G54D12*
G01X2315Y18571D03*
G54D13*
G01X4855Y18571D03*
G01X7395Y18571D03*
G54D12*
G01X8665Y9046D03*
G54D13*
G01X6125Y9046D03*
G01X3585Y9046D03*
G54D14*
G01X10189Y19714D03*
G01X20349Y19714D03*
G01X22381Y14507D03*
G01X22381Y4347D03*
G01X9681Y2696D03*
G01X19841Y2696D03*
G01X9681Y6506D03*
G01X19841Y6506D03*
G01X19333Y22635D03*
G01X9173Y22635D03*
G01X18800Y13999D03*
G01X16260Y13999D03*
G36*
G01X8487Y13239D02*
G01X10011Y13239D01*
G01X10011Y14763D01*
G01X8487Y14763D01*
G01X8487Y13239D01*
G37*
G01X11750Y13998D03*
G54D12*
G01X21111Y17428D03*
G54D16*
G01X17936Y25810D03*
G01X12856Y25810D03*
G01X15396Y25810D03*
G01X10316Y25810D03*
G54D13*
G01X26191Y17428D02*
G01X26191Y17428D01*
G01X23651Y17428D02*
G01X23651Y17428D01*
M00*
M02*
