G04 Layer: BottomSilkLayer*
G04 EasyEDA v6.3.53, 2020-07-21T18:42:38+02:00*
G04 Gerber Generator version 0.2*
G04 Scale: 100 percent, Rotated: No, Reflected: No *
G04 Dimensions in millimeters *
G04 leading zeros omitted , absolute positions ,3 integer and 3 decimal *
%FSLAX33Y33*%
%MOMM*%
G90*
G71D02*

%ADD10C,0.254000*%
%ADD17C,0.152400*%
%ADD18C,0.203200*%

%LPD*%
G54D10*
G01X18063Y21365D02*
G01X18063Y23905D01*
G01X10443Y23905D01*
G01X10443Y21365D01*
G01X18063Y21365D01*
G01X12950Y12899D02*
G01X12950Y15099D01*
G54D17*
G01X21757Y22635D02*
G01X20667Y22635D01*
G01X21757Y22635D02*
G01X21757Y23103D01*
G01X21706Y23258D01*
G01X21652Y23311D01*
G01X21548Y23362D01*
G01X21444Y23362D01*
G01X21340Y23311D01*
G01X21289Y23258D01*
G01X21238Y23103D01*
G01X21238Y22635D01*
G01X21238Y22999D02*
G01X20667Y23362D01*
G01X21757Y24330D02*
G01X21757Y23809D01*
G01X21289Y23758D01*
G01X21340Y23809D01*
G01X21393Y23966D01*
G01X21393Y24121D01*
G01X21340Y24276D01*
G01X21238Y24380D01*
G01X21081Y24434D01*
G01X20977Y24434D01*
G01X20822Y24380D01*
G01X20718Y24276D01*
G01X20667Y24121D01*
G01X20667Y23966D01*
G01X20718Y23809D01*
G01X20769Y23758D01*
G01X20873Y23705D01*
G01X17166Y18201D02*
G01X17166Y17111D01*
G01X17529Y18201D02*
G01X16803Y18201D01*
G01X16460Y18201D02*
G01X15731Y17111D01*
G01X15731Y18201D02*
G01X16460Y17111D01*
G01X15388Y18201D02*
G01X15388Y17111D01*
G01X15388Y17111D02*
G01X14766Y17111D01*
G54D18*
G01X18772Y15904D02*
G01X18772Y15087D01*
G01X19180Y15496D02*
G01X18363Y15496D01*
G54D17*
G01X10443Y9925D02*
G01X10443Y11016D01*
G01X10443Y9925D02*
G01X10911Y9925D01*
G01X11067Y9977D01*
G01X11119Y10029D01*
G01X11171Y10133D01*
G01X11171Y10237D01*
G01X11119Y10341D01*
G01X11067Y10393D01*
G01X10911Y10445D01*
G01X10443Y10445D01*
G01X10807Y10445D02*
G01X11171Y11016D01*
G01X11514Y9925D02*
G01X12241Y11016D01*
G01X12241Y9925D02*
G01X11514Y11016D01*
G01X12584Y9925D02*
G01X12584Y11016D01*
G01X12584Y9925D02*
G01X13052Y9925D01*
G01X13207Y9977D01*
G01X13259Y10029D01*
G01X13311Y10133D01*
G01X13311Y10289D01*
G01X13259Y10393D01*
G01X13207Y10445D01*
G01X13052Y10497D01*
G01X12584Y10497D01*
G01X14018Y9925D02*
G01X14018Y11016D01*
G01X13654Y9925D02*
G01X14382Y9925D01*
G54D10*
G75*
G01X12950Y15099D02*
G03X12947Y12899I-2270J-1096D01*
G01*
G75*
G01X20324Y14000D02*
G03X20324Y14000I-2794J0D01*
G01*
M00*
M02*
